<mxfile host="app.diagrams.net" modified="2021-11-08T05:56:31.985Z" agent="5.0 (Macintosh; Intel Mac OS X 10_15_6) AppleWebKit/605.1.15 (KHTML, like Gecko) Version/14.0.3 Safari/605.1.15" etag="t26vGUGBxfDLWMizskKC" version="14.7.0" type="github">
  <diagram id="RGebkHgm0LtmcH2xnFC8" name="Page-1">
    <mxGraphModel dx="946" dy="538" grid="1" gridSize="10" guides="1" tooltips="1" connect="1" arrows="1" fold="1" page="1" pageScale="1" pageWidth="827" pageHeight="1169" math="0" shadow="0">
      <root>
        <mxCell id="0" />
        <mxCell id="1" parent="0" />
        <mxCell id="lk3RMHtLNM671Deulk4x-26" value="" style="shape=ext;double=1;rounded=0;whiteSpace=wrap;html=1;dashed=1;labelBackgroundColor=none;" parent="1" vertex="1">
          <mxGeometry x="40" y="40" width="520" height="400" as="geometry" />
        </mxCell>
        <mxCell id="lk3RMHtLNM671Deulk4x-22" style="edgeStyle=orthogonalEdgeStyle;rounded=0;orthogonalLoop=1;jettySize=auto;html=1;entryX=1;entryY=0.667;entryDx=0;entryDy=0;entryPerimeter=0;endArrow=classic;endFill=1;exitX=-0.012;exitY=0.667;exitDx=0;exitDy=0;exitPerimeter=0;" parent="1" edge="1">
          <mxGeometry relative="1" as="geometry">
            <mxPoint x="439.03999999999996" y="262.08000000000004" as="sourcePoint" />
            <mxPoint x="240" y="262.08000000000004" as="targetPoint" />
          </mxGeometry>
        </mxCell>
        <mxCell id="lk3RMHtLNM671Deulk4x-23" value="&lt;font color=&quot;#67ab9f&quot; style=&quot;font-size: 15px&quot;&gt;&lt;b&gt;注册完成&lt;/b&gt;&lt;/font&gt;" style="edgeLabel;html=1;align=center;verticalAlign=middle;resizable=0;points=[];labelBackgroundColor=none;" parent="lk3RMHtLNM671Deulk4x-22" vertex="1" connectable="0">
          <mxGeometry x="-0.045" y="-2" relative="1" as="geometry">
            <mxPoint y="10" as="offset" />
          </mxGeometry>
        </mxCell>
        <mxCell id="lk3RMHtLNM671Deulk4x-5" value="&lt;b&gt;&lt;font style=&quot;font-size: 14px&quot;&gt;应用服务&lt;/font&gt;&lt;/b&gt;" style="rounded=0;whiteSpace=wrap;html=1;labelPosition=left;verticalLabelPosition=top;align=right;verticalAlign=bottom;dashed=1;fillColor=#f5f5f5;strokeColor=#666666;fontColor=#333333;" parent="1" vertex="1">
          <mxGeometry x="440" y="80" width="80" height="240" as="geometry" />
        </mxCell>
        <mxCell id="lk3RMHtLNM671Deulk4x-17" value="&lt;h1 style=&quot;margin: 0px ; padding: 0px ; font-stretch: normal ; line-height: 26px ; font-family: &amp;#34;pingfang sc&amp;#34; , &amp;#34;lantinghei sc&amp;#34; , &amp;#34;microsoft yahei&amp;#34; , &amp;#34;arial&amp;#34; , , sans-serif , &amp;#34;tahoma&amp;#34; ; word-break: break-all ; position: relative ; color: rgb(51 , 51 , 51)&quot;&gt;&lt;span class=&quot;ask-title&quot; style=&quot;display: inline ; line-height: 34px ; font-weight: 400 ; overflow: hidden ; vertical-align: middle&quot;&gt;&lt;font style=&quot;font-size: 11px&quot;&gt;②&lt;/font&gt;&lt;/span&gt;&lt;/h1&gt;" style="text;html=1;align=center;verticalAlign=middle;resizable=0;points=[];autosize=1;strokeColor=none;" parent="1" vertex="1">
          <mxGeometry x="219" y="194" width="30" height="40" as="geometry" />
        </mxCell>
        <mxCell id="lk3RMHtLNM671Deulk4x-18" style="edgeStyle=orthogonalEdgeStyle;rounded=0;orthogonalLoop=1;jettySize=auto;html=1;entryX=0;entryY=0.5;entryDx=0;entryDy=0;endArrow=none;endFill=0;" parent="1" edge="1">
          <mxGeometry relative="1" as="geometry">
            <mxPoint x="240" y="222" as="sourcePoint" />
            <mxPoint x="440" y="222" as="targetPoint" />
          </mxGeometry>
        </mxCell>
        <mxCell id="lk3RMHtLNM671Deulk4x-19" value="&lt;b&gt;&lt;font color=&quot;#67ab9f&quot; style=&quot;font-size: 15px&quot;&gt;注册响应&lt;/font&gt;&lt;/b&gt;&lt;br&gt;最终挑战值及公钥" style="edgeLabel;html=1;align=center;verticalAlign=middle;resizable=0;points=[];labelBackgroundColor=none;" parent="lk3RMHtLNM671Deulk4x-18" vertex="1" connectable="0">
          <mxGeometry x="0.03" y="1" relative="1" as="geometry">
            <mxPoint y="1" as="offset" />
          </mxGeometry>
        </mxCell>
        <mxCell id="lk3RMHtLNM671Deulk4x-1" value="&lt;b&gt;&lt;font style=&quot;font-size: 14px&quot;&gt;FIDO客户端&lt;/font&gt;&lt;/b&gt;" style="rounded=0;whiteSpace=wrap;html=1;labelPosition=left;verticalLabelPosition=top;align=right;verticalAlign=bottom;dashed=1;fillColor=#f5f5f5;strokeColor=#666666;fontColor=#333333;" parent="1" vertex="1">
          <mxGeometry x="160" y="80" width="80" height="240" as="geometry" />
        </mxCell>
        <mxCell id="lk3RMHtLNM671Deulk4x-15" style="edgeStyle=orthogonalEdgeStyle;rounded=0;orthogonalLoop=1;jettySize=auto;html=1;entryX=1.025;entryY=0.3;entryDx=0;entryDy=0;entryPerimeter=0;dashed=1;endArrow=classic;endFill=1;" parent="1" edge="1">
          <mxGeometry relative="1" as="geometry">
            <mxPoint x="240" y="182" as="sourcePoint" />
            <mxPoint x="221" y="182" as="targetPoint" />
          </mxGeometry>
        </mxCell>
        <mxCell id="lk3RMHtLNM671Deulk4x-20" style="edgeStyle=orthogonalEdgeStyle;rounded=0;orthogonalLoop=1;jettySize=auto;html=1;entryX=0;entryY=0.5;entryDx=0;entryDy=0;endArrow=classic;endFill=1;exitX=0;exitY=0.5;exitDx=0;exitDy=0;dashed=1;" parent="1" edge="1">
          <mxGeometry relative="1" as="geometry">
            <mxPoint x="440" y="222" as="sourcePoint" />
            <mxPoint x="460" y="222" as="targetPoint" />
            <Array as="points">
              <mxPoint x="450" y="222" />
              <mxPoint x="450" y="222" />
            </Array>
          </mxGeometry>
        </mxCell>
        <mxCell id="lk3RMHtLNM671Deulk4x-6" style="edgeStyle=orthogonalEdgeStyle;rounded=0;orthogonalLoop=1;jettySize=auto;html=1;entryX=-0.012;entryY=0.167;entryDx=0;entryDy=0;entryPerimeter=0;exitX=0.988;exitY=0.167;exitDx=0;exitDy=0;exitPerimeter=0;endArrow=none;endFill=0;" parent="1" edge="1">
          <mxGeometry relative="1" as="geometry">
            <mxPoint x="239.03999999999996" y="142.08000000000004" as="sourcePoint" />
            <mxPoint x="439.03999999999996" y="142.08000000000004" as="targetPoint" />
          </mxGeometry>
        </mxCell>
        <mxCell id="lk3RMHtLNM671Deulk4x-7" value="&lt;font color=&quot;#67ab9f&quot; style=&quot;font-size: 15px&quot;&gt;&lt;b&gt;初始化注册&lt;/b&gt;&lt;/font&gt;" style="edgeLabel;html=1;align=center;verticalAlign=middle;resizable=0;points=[];labelBackgroundColor=none;" parent="lk3RMHtLNM671Deulk4x-6" vertex="1" connectable="0">
          <mxGeometry x="-0.1404" relative="1" as="geometry">
            <mxPoint x="15" y="-10" as="offset" />
          </mxGeometry>
        </mxCell>
        <mxCell id="lk3RMHtLNM671Deulk4x-14" style="edgeStyle=orthogonalEdgeStyle;rounded=0;orthogonalLoop=1;jettySize=auto;html=1;entryX=1;entryY=0.5;entryDx=0;entryDy=0;dashed=1;endArrow=none;endFill=0;" parent="1" edge="1">
          <mxGeometry relative="1" as="geometry">
            <mxPoint x="220" y="222" as="sourcePoint" />
            <mxPoint x="240" y="222" as="targetPoint" />
            <Array as="points">
              <mxPoint x="230" y="222" />
              <mxPoint x="230" y="222" />
            </Array>
          </mxGeometry>
        </mxCell>
        <mxCell id="lk3RMHtLNM671Deulk4x-2" value="&lt;b&gt;FIDO认证器&lt;/b&gt;" style="rounded=0;whiteSpace=wrap;html=1;fillColor=#dae8fc;strokeColor=#6c8ebf;" parent="1" vertex="1">
          <mxGeometry x="180" y="100" width="40" height="200" as="geometry" />
        </mxCell>
        <mxCell id="lk3RMHtLNM671Deulk4x-12" style="edgeStyle=orthogonalEdgeStyle;rounded=0;orthogonalLoop=1;jettySize=auto;html=1;dashed=1;endArrow=classic;endFill=1;exitX=0.013;exitY=0.167;exitDx=0;exitDy=0;exitPerimeter=0;entryX=0.05;entryY=0.1;entryDx=0;entryDy=0;entryPerimeter=0;" parent="1" edge="1">
          <mxGeometry relative="1" as="geometry">
            <mxPoint x="441.03999999999996" y="142.08000000000004" as="sourcePoint" />
            <mxPoint x="462" y="142" as="targetPoint" />
            <Array as="points">
              <mxPoint x="450" y="142" />
              <mxPoint x="450" y="141" />
            </Array>
          </mxGeometry>
        </mxCell>
        <mxCell id="lk3RMHtLNM671Deulk4x-9" style="edgeStyle=orthogonalEdgeStyle;rounded=0;orthogonalLoop=1;jettySize=auto;html=1;entryX=1;entryY=0.333;entryDx=0;entryDy=0;entryPerimeter=0;endArrow=none;endFill=0;" parent="1" edge="1">
          <mxGeometry relative="1" as="geometry">
            <mxPoint x="440" y="182" as="sourcePoint" />
            <mxPoint x="240" y="181.91999999999996" as="targetPoint" />
            <Array as="points">
              <mxPoint x="290" y="182" />
              <mxPoint x="290" y="182" />
            </Array>
          </mxGeometry>
        </mxCell>
        <mxCell id="lk3RMHtLNM671Deulk4x-13" value="&lt;b&gt;&lt;font color=&quot;#67ab9f&quot; style=&quot;font-size: 15px&quot;&gt;注册请求&lt;/font&gt;&lt;/b&gt;&lt;br&gt;挑战值及策略" style="edgeLabel;html=1;align=center;verticalAlign=middle;resizable=0;points=[];labelBackgroundColor=none;" parent="lk3RMHtLNM671Deulk4x-9" vertex="1" connectable="0">
          <mxGeometry x="0.0605" relative="1" as="geometry">
            <mxPoint x="6" as="offset" />
          </mxGeometry>
        </mxCell>
        <mxCell id="lk3RMHtLNM671Deulk4x-10" style="edgeStyle=orthogonalEdgeStyle;rounded=0;orthogonalLoop=1;jettySize=auto;html=1;exitX=0.025;exitY=0.3;exitDx=0;exitDy=0;exitPerimeter=0;dashed=1;endArrow=none;endFill=0;" parent="1" edge="1">
          <mxGeometry relative="1" as="geometry">
            <mxPoint x="440" y="182" as="targetPoint" />
            <mxPoint x="461" y="182" as="sourcePoint" />
          </mxGeometry>
        </mxCell>
        <mxCell id="lk3RMHtLNM671Deulk4x-8" value="&lt;b&gt;FIDO服务&lt;/b&gt;" style="rounded=0;whiteSpace=wrap;html=1;fillColor=#ffe6cc;strokeColor=#d79b00;" parent="1" vertex="1">
          <mxGeometry x="460" y="100" width="40" height="200" as="geometry" />
        </mxCell>
        <mxCell id="lk3RMHtLNM671Deulk4x-16" value="&lt;h1 style=&quot;margin: 0px ; padding: 0px ; font-stretch: normal ; line-height: 26px ; font-family: &amp;#34;pingfang sc&amp;#34; , &amp;#34;lantinghei sc&amp;#34; , &amp;#34;microsoft yahei&amp;#34; , &amp;#34;arial&amp;#34; , , sans-serif , &amp;#34;tahoma&amp;#34; ; word-break: break-all ; position: relative ; color: rgb(51 , 51 , 51)&quot;&gt;&lt;span class=&quot;ask-title&quot; style=&quot;display: inline ; line-height: 34px ; font-weight: 400 ; overflow: hidden ; vertical-align: middle&quot;&gt;&lt;font style=&quot;font-size: 11px&quot;&gt;①&lt;/font&gt;&lt;/span&gt;&lt;/h1&gt;" style="text;html=1;align=center;verticalAlign=middle;resizable=0;points=[];autosize=1;strokeColor=none;" parent="1" vertex="1">
          <mxGeometry x="219" y="154" width="30" height="40" as="geometry" />
        </mxCell>
        <mxCell id="lk3RMHtLNM671Deulk4x-21" value="&lt;h1 style=&quot;margin: 0px ; padding: 0px ; font-stretch: normal ; line-height: 26px ; font-family: &amp;#34;pingfang sc&amp;#34; , &amp;#34;lantinghei sc&amp;#34; , &amp;#34;microsoft yahei&amp;#34; , &amp;#34;arial&amp;#34; , , sans-serif , &amp;#34;tahoma&amp;#34; ; word-break: break-all ; position: relative ; color: rgb(51 , 51 , 51)&quot;&gt;&lt;span class=&quot;ask-title&quot; style=&quot;display: inline ; line-height: 34px ; font-weight: 400 ; overflow: hidden ; vertical-align: middle&quot;&gt;&lt;font style=&quot;font-size: 11px&quot;&gt;③&lt;/font&gt;&lt;/span&gt;&lt;/h1&gt;" style="text;html=1;align=center;verticalAlign=middle;resizable=0;points=[];autosize=1;strokeColor=none;" parent="1" vertex="1">
          <mxGeometry x="431" y="194" width="30" height="40" as="geometry" />
        </mxCell>
        <mxCell id="lk3RMHtLNM671Deulk4x-24" value="&lt;h1 style=&quot;margin: 0px ; padding: 0px ; font-stretch: normal ; line-height: 26px ; word-break: break-all ; position: relative ; color: rgb(51 , 51 , 51)&quot;&gt;&lt;span class=&quot;ask-title&quot; style=&quot;display: inline ; line-height: 34px ; font-weight: 400 ; overflow: hidden ; vertical-align: middle&quot;&gt;&lt;font style=&quot;font-size: 13px&quot;&gt;①：&lt;/font&gt;&lt;font style=&quot;font-size: 13px&quot;&gt;解析认证策略，根据挑战值创建最终挑战值并创建公私钥对&lt;/font&gt;&lt;/span&gt;&lt;/h1&gt;&lt;h1 style=&quot;text-align: left ; margin: 0px ; padding: 0px ; font-stretch: normal ; line-height: 26px ; word-break: break-all ; position: relative ; color: rgb(51 , 51 , 51) ; font-size: 13px&quot;&gt;&lt;span class=&quot;ask-title&quot; style=&quot;display: inline ; line-height: 34px ; font-weight: 400 ; overflow: hidden ; vertical-align: middle&quot;&gt;&lt;font style=&quot;font-size: 13px&quot;&gt;②：包装最终挑战值及公钥创建TLV格式注册响应数据&lt;/font&gt;&lt;/span&gt;&lt;/h1&gt;&lt;h1 style=&quot;text-align: left ; margin: 0px ; padding: 0px ; font-stretch: normal ; line-height: 26px ; word-break: break-all ; position: relative ; color: rgb(51 , 51 , 51) ; font-size: 13px&quot;&gt;&lt;span style=&quot;font-weight: 400 ; text-align: center&quot;&gt;③：验证注册响应数据，对认证器合法性进行校验&lt;/span&gt;&lt;/h1&gt;" style="text;html=1;align=center;verticalAlign=middle;resizable=0;points=[];autosize=1;strokeColor=none;" parent="1" vertex="1">
          <mxGeometry x="150" y="320" width="380" height="100" as="geometry" />
        </mxCell>
      </root>
    </mxGraphModel>
  </diagram>
</mxfile>
